<?xml version="1.0" standalone="no"?>
<!DOCTYPE svg PUBLIC "-//W3C//DTD SVG 20010904//EN"
 "http://www.w3.org/TR/2001/REC-SVG-20010904/DTD/svg10.dtd">
<svg version="1.0" xmlns="http://www.w3.org/2000/svg"
 width="700.000000pt" height="700.000000pt" viewBox="0 0 700.000000 700.000000"
 preserveAspectRatio="xMidYMid meet">
<metadata>
Created by potrace 1.14, written by Peter Selinger 2001-2017
</metadata>
<g transform="translate(0.000000,700.000000) scale(0.100000,-0.100000)"
fill="#000000" stroke="none">
<path d="M4597 5224 c-1 -1 -36 -4 -77 -7 -277 -22 -515 -221 -591 -494 -23
-81 -31 -229 -17 -324 31 -218 186 -419 394 -511 175 -79 406 -80 579 -3 109
48 241 161 283 241 14 26 11 28 -69 72 -32 16 -68 38 -82 47 -24 15 -25 15
-45 -17 -50 -80 -152 -149 -259 -174 -29 -7 -92 -10 -141 -8 -146 6 -265 65
-352 176 -118 149 -127 411 -20 578 125 195 405 264 623 153 46 -23 139 -107
162 -145 9 -15 20 -11 103 38 l93 55 -18 31 c-28 47 -89 113 -141 151 -59 44
-172 100 -232 116 -40 11 -187 30 -193 25z"/>
<path d="M620 4524 l0 -674 318 1 c341 1 386 6 468 54 174 102 240 314 154
491 -28 57 -80 116 -126 142 -18 10 -17 13 17 49 49 53 67 84 83 148 25 95 6
213 -45 288 -32 46 -96 105 -138 126 -85 44 -123 48 -433 49 l-298 1 0 -675z
m634 432 c105 -79 89 -242 -29 -303 -23 -13 -67 -16 -205 -17 l-175 -1 -3 178
-2 179 188 -4 189 -3 37 -29z m26 -542 c19 -11 48 -39 64 -62 61 -87 30 -220
-63 -269 -42 -22 -54 -23 -243 -23 l-198 0 0 183 c0 101 2 186 4 188 3 3 94 4
204 4 179 -1 201 -3 232 -21z"/>
<path d="M1790 4523 l0 -673 385 0 385 0 0 105 c0 58 -3 105 -7 106 -5 0 -128
1 -275 1 l-267 1 0 511 c0 281 0 537 0 568 l-1 57 -110 -1 -110 -1 0 -674z"/>
<path d="M3073 5056 c-29 -77 -90 -249 -138 -381 -47 -132 -92 -256 -100 -275
-22 -55 -195 -536 -195 -544 0 -3 53 -6 118 -6 l118 0 23 68 c48 141 73 200
84 204 10 3 452 2 538 -1 23 -1 28 -8 39 -48 7 -27 16 -52 19 -58 3 -5 17 -44
31 -85 l26 -75 117 -3 c69 -1 117 1 117 7 0 5 -23 72 -51 148 -28 76 -52 143
-53 148 -2 6 -6 17 -9 25 -9 21 -111 304 -152 420 -18 52 -40 113 -48 135 -9
22 -45 123 -82 225 -36 102 -71 197 -77 213 l-11 27 -131 -1 -132 -2 -51 -141z
m197 -148 c0 -6 15 -54 34 -107 19 -53 61 -172 94 -266 33 -93 63 -178 67
-187 7 -17 -7 -18 -204 -18 -116 0 -211 4 -211 8 0 7 29 93 136 397 25 72 50
145 55 163 9 29 29 37 29 10z"/>
<path d="M5369 5173 c-4 -131 -3 -1307 2 -1314 3 -6 52 -8 110 -7 l104 3 0
313 c0 171 3 312 6 312 6 0 307 -360 469 -561 l55 -68 134 0 c127 -1 133 0
119 17 -8 9 -85 103 -170 207 -84 105 -194 240 -243 300 -49 61 -95 116 -102
123 -32 34 -32 47 0 87 18 21 100 120 182 219 83 100 159 192 170 205 11 13
45 54 75 90 30 36 61 73 68 82 12 16 2 17 -118 17 l-131 0 -217 -257 c-119
-141 -225 -265 -234 -276 -9 -11 -26 -31 -37 -44 l-21 -24 0 59 c-1 32 -2 167
-3 299 l-2 240 -107 3 -108 2 -1 -27z"/>
<path d="M732 2623 l3 -847 325 0 c426 1 451 3 567 59 313 148 387 578 143
823 -65 65 -143 111 -235 138 -50 15 -100 18 -293 18 l-232 1 2 195 3 195 378
0 377 0 0 132 0 133 -520 0 -520 0 2 -847z m751 -87 c98 -43 151 -129 151
-245 0 -113 -60 -199 -166 -237 -39 -14 -184 -19 -425 -15 l-33 1 0 258 0 258
218 -2 c175 -1 224 -5 255 -18z"/>
<path d="M2145 2623 l0 -846 500 -1 c275 -1 506 0 513 2 9 3 12 39 12 133 0
96 -3 129 -12 130 -7 1 -175 2 -373 2 l-360 2 -1 228 -1 227 339 0 339 0 -3
133 -3 132 -335 0 -335 0 -1 218 c-1 153 2 217 10 218 6 1 171 2 366 3 l355 1
3 133 3 132 -508 0 -508 0 0 -847z"/>
<path d="M3428 3463 c-2 -5 -4 -386 -3 -847 l0 -839 138 -1 c130 -1 137 0 138
19 1 11 2 142 3 290 l1 270 170 1 c94 1 195 3 225 5 228 11 432 181 490 408
67 263 -50 526 -289 646 -97 49 -155 55 -528 55 -188 0 -343 -3 -345 -7z m720
-271 c30 -10 65 -34 98 -67 66 -66 88 -128 82 -230 -8 -120 -62 -205 -162
-251 -45 -21 -63 -23 -255 -24 l-207 -1 0 296 1 296 198 -1 c153 -1 209 -5
245 -18z"/>
<path d="M4852 2623 l3 -847 110 1 c60 0 110 4 112 9 2 5 70 106 152 224 82
118 205 295 273 393 68 98 144 208 170 245 26 37 52 74 58 82 34 52 131 190
133 190 1 0 2 -257 2 -572 l0 -571 120 -2 c66 0 129 1 140 3 20 3 20 11 19
835 -1 458 -2 838 -3 845 -1 9 -30 12 -109 12 l-107 0 -225 -325 c-124 -179
-256 -370 -295 -425 -38 -54 -115 -165 -170 -245 l-100 -146 -3 570 -2 571
-140 0 -140 0 2 -847z"/>
</g>
</svg>
